%TF.GenerationSoftware,KiCad,Pcbnew,10.0.6*%
%TF.CreationDate,2026-10-10T09:35:55+01:00*%
%TF.ProjectId,StarbiePCB,53746172-6269-4655-9043-422e6b696361,rev?*%
%TF.SameCoordinates,Original*%
%TF.FileFunction,Soldermask,Bot*%
%TF.FilePolarity,Negative*%
%FSLAX46Y46*%
G04 Gerber Fmt 4.6, Leading zero omitted, Abs format (unit mm)*
G04 Created by KiCad (PCBNEW 10.0.6) date 2026-10-10 09:35:55*
%MOMM*%
%LPD*%
G01*
G04 APERTURE LIST*
%ADD10C,1.524000*%
%ADD11C,1.700000*%
%ADD12C,4.000000*%
%ADD13C,2.200000*%
%ADD14R,1.500000X1.500000*%
%ADD15C,1.500000*%
%ADD16O,3.800000X2.900000*%
%ADD17R,1.700000X1.700000*%
%ADD18O,1.700000X1.700000*%
%ADD19C,1.400000*%
G04 APERTURE END LIST*
D10*
%TO.C,U1*%
X138740000Y-114540000D03*
X138740000Y-112000000D03*
X138740000Y-109460000D03*
X138740000Y-106920000D03*
X138740000Y-104380000D03*
X138740000Y-101840000D03*
X138740000Y-99300000D03*
X123500000Y-99300000D03*
X123500000Y-101840000D03*
X123500000Y-104380000D03*
X123500000Y-106920000D03*
X123500000Y-109460000D03*
X123500000Y-112000000D03*
X123500000Y-114540000D03*
%TD*%
D11*
%TO.C,SW1*%
X97840000Y-113500000D03*
D12*
X102920000Y-113500000D03*
D11*
X108000000Y-113500000D03*
D13*
X105460000Y-108420000D03*
X99110000Y-110960000D03*
%TD*%
D14*
%TO.C,U2*%
X149500000Y-68000000D03*
D15*
X149500000Y-70540000D03*
X149500000Y-73080000D03*
X149500000Y-75620000D03*
%TD*%
D16*
%TO.C,J1*%
X142676000Y-82373000D03*
X142676000Y-59259000D03*
X120324000Y-82373000D03*
X120324000Y-59259000D03*
D17*
X135310000Y-83008000D03*
D18*
X132770000Y-83008000D03*
X130230000Y-83008000D03*
X127690000Y-83008000D03*
%TD*%
D11*
%TO.C,SW2*%
X157340000Y-114500000D03*
D12*
X162420000Y-114500000D03*
D11*
X167500000Y-114500000D03*
D13*
X164960000Y-109420000D03*
X158610000Y-111960000D03*
%TD*%
D19*
%TO.C,R1*%
X127190000Y-122000000D03*
X134810000Y-122000000D03*
%TD*%
D17*
%TO.C,J2*%
X137390000Y-88500000D03*
D11*
X134850000Y-88500000D03*
X132310000Y-88500000D03*
X129770000Y-88500000D03*
X127230000Y-88500000D03*
X124690000Y-88500000D03*
X122150000Y-88500000D03*
X119610000Y-88500000D03*
%TD*%
M02*
