M48
; DRILL file KiCad 10.0.6 date 2026-10-10T09:37:04
; FORMAT={-:-/ absolute / metric / decimal}
; #@! TF.CreationDate,2026-10-10T09:37:04+01:00
; #@! TF.GenerationSoftware,Kicad,Pcbnew,10.0.6
; #@! TF.FileFunction,Plated,1,2,PTH
FMAT,2
METRIC
; #@! TA.AperFunction,Plated,PTH,ComponentDrill
T1C0.700
; #@! TA.AperFunction,Plated,PTH,ComponentDrill
T2C0.800
; #@! TA.AperFunction,Plated,PTH,ComponentDrill
T3C0.889
; #@! TA.AperFunction,Plated,PTH,ComponentDrill
T4C1.000
; #@! TA.AperFunction,Plated,PTH,ComponentDrill
T5C1.500
%
G90
G05
T1
X127.19Y-122.0
X134.81Y-122.0
T2
X149.5Y-68.0
X149.5Y-70.54
X149.5Y-73.08
X149.5Y-75.62
T3
X123.5Y-99.3
X123.5Y-101.84
X123.5Y-104.38
X123.5Y-106.92
X123.5Y-109.46
X123.5Y-112.0
X123.5Y-114.54
X138.74Y-99.3
X138.74Y-101.84
X138.74Y-104.38
X138.74Y-106.92
X138.74Y-109.46
X138.74Y-112.0
X138.74Y-114.54
T4
X119.61Y-88.5
X122.15Y-88.5
X124.69Y-88.5
X127.23Y-88.5
X127.69Y-83.008
X129.77Y-88.5
X130.23Y-83.008
X132.31Y-88.5
X132.77Y-83.008
X134.85Y-88.5
X135.31Y-83.008
X137.39Y-88.5
T5
X99.11Y-110.96
X105.46Y-108.42
X158.61Y-111.96
X164.96Y-109.42
M30
